<svg xmlns="http://www.w3.org/2000/svg" viewBox="0 0 2029.56 680.23"><defs><style>.cls-1{fill:#4d8faa;}.cls-2{fill:#99bfcf;}.cls-3{fill:#005f86;}</style></defs><g id="Layer_2" data-name="Layer 2"><g id="Road"><path class="cls-1" d="M1471.91,43.18,1248.29,169.49a3.54,3.54,0,0,0-.07,6.13L1520,337.87a45,45,0,0,1-1.52,78.15L1296.12,537.35a75.77,75.77,0,0,1-76.08-2.11L1011.25,405.81a12.81,12.81,0,0,0-13.12-.25L826,503.63a78.17,78.17,0,0,1-77.64-.29L515,367.47a14.14,14.14,0,0,0-14.67.22L20.19,662.23v-36L481.79,338a49.1,49.1,0,0,1,50.83-.79l233.3,135.86a43,43,0,0,0,42.73.14L980.8,375.15a47.82,47.82,0,0,1,48.9.91L1238.48,505.5a40.72,40.72,0,0,0,40.87,1.13l222.32-121.34a10,10,0,0,0,.33-17.37L1230.28,205.67a38.54,38.54,0,0,1,.8-66.65L1454.69,12.7A44.57,44.57,0,0,1,1476.85,7l4.4,0,547.94,298.36v-7L1483.09.07,1476.92,0a51.2,51.2,0,0,0-25.67,6.61L1227.64,132.92a45.55,45.55,0,0,0-1,78.76l271.72,162.25a3,3,0,0,1-.1,5.22L1276,500.48a33.67,33.67,0,0,1-33.82-.93L1033.39,370.11a54.8,54.8,0,0,0-56.05-1L805.18,467.14a36,36,0,0,1-35.74-.11L536.15,331.17a56.07,56.07,0,0,0-58.07.91L.19,631.23v23.5h1v2h-1v1.1l10.88-6.7,1,1.7L1.05,659.65l-.86-1.39v22l503.86-306.6a7.2,7.2,0,0,1,7.44-.12L744.82,509.4a85.24,85.24,0,0,0,84.62.32l172.15-98.08a5.85,5.85,0,0,1,6,.12l208.78,129.43a82.76,82.76,0,0,0,83.12,2.3l222.32-121.33a52,52,0,0,0,1.74-90.3l-266.61-159.2,216.2-122.13,556.07,296.88v-7l-556-297.83A7.56,7.56,0,0,0,1471.91,43.18Z"/><path class="cls-2" d="M2028.63,324.34l-1.3-.67.92-1.78.94.49v-17L1481.25,7.05l-4.4,0a44.57,44.57,0,0,0-22.16,5.7L1231.08,139a38.54,38.54,0,0,0-.8,66.65L1502,367.92a10,10,0,0,1-.33,17.37L1279.35,506.63a40.72,40.72,0,0,1-40.87-1.13L1029.7,376.06a47.82,47.82,0,0,0-48.9-.91L808.65,473.22a43,43,0,0,1-42.73-.14L532.62,337.22a49.1,49.1,0,0,0-50.83.79L20.19,626.23v36L500.34,367.69a14.14,14.14,0,0,1,14.67-.22L748.33,503.34a78.17,78.17,0,0,0,77.64.29l172.16-98.07a12.81,12.81,0,0,1,13.12.25L1220,535.24a75.77,75.77,0,0,0,76.08,2.11L1518.43,416a45,45,0,0,0,1.52-78.15L1248.22,175.62a3.54,3.54,0,0,1,.07-6.13L1471.91,43.18a7.56,7.56,0,0,1,1.29-.6l556,297.83V323.28ZM23.18,646l-1.05-1.71,11.07-6.82,1,1.71Zm22.13-13.65-1-1.7,11.06-6.82,1.05,1.7Zm22.14-13.64-1-1.7,11.06-6.82,1.05,1.7Zm22.13-13.64-1-1.71,11.07-6.82,1.05,1.71Zm22.13-13.65-1-1.7,11.07-6.82,1,1.7Zm22.14-13.64-1-1.7,11.06-6.83,1,1.71ZM156,564.15l-1-1.71L166,555.62l1,1.7Zm22.13-13.65-1.05-1.7L188.13,542l1.05,1.7Zm22-14.67-2-1.1,10.61-6.63,1.82,1.22Zm22.38-14-1.06-1.7,12.72-7.95,1.06,1.7ZM247.94,506l-1.06-1.7,12.72-7.95,1.06,1.7Zm25.44-15.9-1.06-1.69L285,480.41l1.06,1.69Zm25.44-15.9-1.06-1.69,12.72-7.95,1.06,1.7Zm25.44-15.89-1.06-1.7,12.72-7.95,1.06,1.7Zm25.44-15.9-1.06-1.7,12.73-7.94,1.06,1.69Zm25.45-15.9-1.06-1.69,12.72-7.95,1.06,1.7Zm25.44-15.89-1.06-1.7,12.72-7.95,1.06,1.7ZM426,394.67,425,393,437.69,385l1.06,1.69Zm25.44-15.9-1.06-1.69,12.72-7.95,1.06,1.7Zm25.44-15.89-1.06-1.7,12.72-7.95,1.06,1.7Zm39.08-13A35.17,35.17,0,0,0,502.05,347v-.5l-.75-1.21.46-.29h.29a37,37,0,0,1,14.73,3Zm26,14.77-13-7.52,1-1.73,13,7.52Zm25.95,15.05-13-7.53,1-1.73,13,7.53Zm26,15-13-7.52,1-1.73,13,7.52Zm26,15-13-7.53,1-1.73,13,7.53Zm25.95,15-13-7.52,1-1.73,13,7.52Zm26,15.05-13-7.52,1-1.73,13,7.52Zm25.95,15-13-7.52,1-1.73,13,7.52Zm26,15.05-13-7.52,1-1.73,13,7.52Zm26,15.05-13-7.53,1-1.73,13,7.53Zm27.85,11.53a60.89,60.89,0,0,1-14.59-4.31l.8-1.83a59.45,59.45,0,0,0,14.11,4.17Zm15.19.59-.17-2a59.52,59.52,0,0,0,14.4-3.05l.65,1.89A61.47,61.47,0,0,1,792.63,497.12Zm28.53-9.74-1-1.73,13-7.43,1,1.74Zm26.07-14.84-1-1.74,13-7.43,1,1.74Zm26.07-14.85-1-1.74,13-7.43,1,1.74Zm26.06-14.85-1-1.74,13-7.43,1,1.74ZM925.43,428l-1-1.74,13-7.43,1,1.74Zm26.07-14.85-1-1.74,13-7.43,1,1.74ZM990,391.23l-12.39,7.06-1-1.74L989,389.49l.66-.37,1,1.76Zm28.47-.33a29.42,29.42,0,0,0-13.92-3.52v-2a31.39,31.39,0,0,1,14.87,3.76Zm25.47,15.73-12.75-7.9,1-1.7,12.75,7.9Zm25.5,15.81-12.75-7.91,1-1.69,12.75,7.9Zm25.49,15.81-12.74-7.91,1-1.7,12.75,7.91Zm25.5,15.8-12.75-7.9,1.06-1.7,12.75,7.9Zm25.5,15.81-12.75-7.9,1-1.7,12.75,7.9Zm25.5,15.81-12.75-7.91,1-1.7,12.75,7.91Zm25.49,15.8-12.74-7.9,1-1.7,12.75,7.9Zm25.5,15.81-12.75-7.9,1.06-1.7,12.75,7.9Zm27.66,12a59.25,59.25,0,0,1-14.56-4.45l.83-1.82a57.16,57.16,0,0,0,14.06,4.29Zm15.2.58-.18-2a57.36,57.36,0,0,0,14.35-3.2l.68,1.87A59.05,59.05,0,0,1,1265.24,529.85Zm28.44-10-1-1.75,13.17-7.19,1,1.76ZM1320,505.51l-1-1.76,13.16-7.18,1,1.75Zm26.34-14.37-1-1.76,13.17-7.18,1,1.75Zm26.33-14.37-1-1.76,13.17-7.19,1,1.76ZM1399,462.39l-1-1.75,13.16-7.19,1,1.76ZM1425.35,448l-1-1.75,13.17-7.19,1,1.76Zm26.33-14.37-1-1.76,13.17-7.18,1,1.76ZM1478,419.28l-1-1.76,13.16-7.18,1,1.75Zm46-51.4a28.52,28.52,0,0,1,1.32,8.62,29.25,29.25,0,0,1-.79,6.72l-1.94-.46a27.46,27.46,0,0,0,.73-6.26,26.86,26.86,0,0,0-1.22-8ZM1232.15,185.52a21.9,21.9,0,0,1-4.16-12.94c0-.63,0-1.26.08-1.89l2,.17c0,.57-.07,1.15-.07,1.72a19.88,19.88,0,0,0,3.78,11.76Zm285,211.11a28.83,28.83,0,0,1-6.59,4.9l-6.18,3.38-1-1.76,6.18-3.37a26.77,26.77,0,0,0,6.13-4.57Zm-14.25-49.74,8.62,5.15a28.94,28.94,0,0,1,4.16,3l-1.31,1.51a28,28,0,0,0-3.88-2.8l-8.62-5.14Zm-25.76-15.38L1490,339.2l-1,1.72-12.87-7.69Zm-25.76-15.38,12.88,7.69-1,1.72-12.88-7.69Zm-25.75-15.38,12.88,7.69-1,1.72-12.88-7.69Zm-25.76-15.38,12.88,7.69-1,1.72-12.88-7.69ZM1374.08,270l12.88,7.69-1,1.72-12.87-7.69Zm-25.76-15.38,12.88,7.69-1,1.72-12.88-7.69Zm-25.76-15.38,12.88,7.69-1,1.72L1321.54,241Zm-25.75-15.38,12.88,7.69-1,1.72-12.88-7.69Zm-25.76-15.38,12.88,7.69-1,1.72L1270,210.19Zm-12.88-7.69-1,1.72-12.88-7.69,1-1.72Zm-18-45.65a20.25,20.25,0,0,0-4.16,3.09l-1.39-1.44a22.56,22.56,0,0,1,4.56-3.4l8.32-4.69,1,1.74Zm21.38-12.08-1-1.74,13.06-7.38,1,1.74Zm26.12-14.76-1-1.74,13.06-7.37,1,1.74Zm26.12-14.75-1-1.74,13.06-7.38,1,1.74Zm26.12-14.76-1-1.74L1352,89.67l1,1.74ZM1366,84l-1-1.74,13.06-7.38,1,1.74Zm26.12-14.76-1-1.74,13.06-7.38,1,1.75Zm26.12-14.75-1-1.74,13.06-7.38,1,1.74Zm26.12-14.76-1-1.74,13.06-7.38,1,1.75Zm39.46-10.15-7.48-4.11a25.09,25.09,0,0,0-5.67.64l-.45-1.95a27.41,27.41,0,0,1,6.12-.69h.54l7.91,4.36Zm26.27,14.5L1497,36.86l1-1.75,13.13,7.25ZM1536.4,58.6l-13.14-7.25,1-1.75,13.13,7.25Zm26.26,14.49-13.13-7.25,1-1.75,13.13,7.25Zm26.27,14.49-13.13-7.25,1-1.75,13.14,7.25Zm26.27,14.49-13.14-7.25,1-1.75,13.14,7.25Zm26.27,14.49-13.14-7.24,1-1.75,13.13,7.24Zm26.26,14.49-13.13-7.24,1-1.75,13.13,7.24ZM1694,145.54l-13.13-7.24,1-1.75,13.13,7.24Zm26.27,14.5-13.13-7.25,1-1.75,13.14,7.24Zm26.27,14.49-13.14-7.25,1-1.75,13.14,7.25ZM1772.81,189l-13.14-7.25,1-1.75,13.13,7.25Zm26.27,14.49-13.14-7.25,1-1.75,13.13,7.25ZM1825.34,218l-13.13-7.25,1-1.75,13.13,7.25Zm26.27,14.49-13.13-7.24,1-1.76,13.14,7.25Zm25.72,13.43-12.75-7,1-1.76,12.3,6.77Zm23.13,11.77-11.53-6,.92-1.77,11.53,6Zm23.07,12-11.54-6,.92-1.77,11.54,6Zm23.06,12-11.53-6,.92-1.77,11.54,6Zm23.07,12-11.53-6,.92-1.77,11.53,6Zm23.07,12-11.53-6,.92-1.78,11.53,6Zm23.07,12-11.54-6,.93-1.77,11.53,6Z"/><rect class="cls-3" x="0.19" y="654.73" width="0.99" height="2"/><rect class="cls-3" x="1404.77" y="282.57" width="2" height="15" transform="matrix(0.51, -0.86, 0.86, 0.51, 436.06, 1348.37)"/><rect class="cls-3" x="1379.01" y="267.19" width="2" height="15" transform="matrix(0.51, -0.86, 0.86, 0.51, 436.71, 1318.76)"/><rect class="cls-3" x="1327.49" y="236.43" width="2" height="15" transform="translate(437.96 1259.48) rotate(-59.16)"/><rect class="cls-3" x="1430.52" y="297.95" width="2" height="15" transform="matrix(0.51, -0.86, 0.86, 0.51, 435.41, 1377.98)"/><path class="cls-3" d="M1514.34,356.55l1.31-1.51a28.94,28.94,0,0,0-4.16-3l-8.62-5.15-1,1.72,8.62,5.14A28,28,0,0,1,1514.34,356.55Z"/><rect class="cls-3" x="1482.04" y="328.71" width="2" height="15" transform="matrix(0.51, -0.86, 0.86, 0.51, 434.1, 1437.2)"/><rect class="cls-3" x="1456.28" y="313.33" width="2" height="15" transform="matrix(0.51, -0.86, 0.86, 0.51, 434.75, 1407.59)"/><rect class="cls-3" x="1353.25" y="251.81" width="2" height="15" transform="matrix(0.51, -0.86, 0.86, 0.51, 437.36, 1289.15)"/><rect class="cls-3" x="1260.1" y="137.49" width="15" height="2" transform="translate(95.98 641.76) rotate(-29.48)"/><path class="cls-3" d="M1239.19,153.38a22.56,22.56,0,0,0-4.56,3.4l1.39,1.44a20.25,20.25,0,0,1,4.16-3.09l8.32-4.7-1-1.74Z"/><rect class="cls-3" x="1301.73" y="221.05" width="2" height="15" transform="translate(438.61 1229.87) rotate(-59.16)"/><rect class="cls-3" x="1250.22" y="190.29" width="2" height="15" transform="translate(439.94 1170.68) rotate(-59.16)"/><rect class="cls-3" x="1275.98" y="205.67" width="2" height="15" transform="translate(439.29 1200.29) rotate(-59.16)"/><rect class="cls-3" x="1344.95" y="485.67" width="15" height="2" transform="translate(-67.88 707.21) rotate(-28.62)"/><rect class="cls-3" x="1286.22" y="122.73" width="15" height="2" transform="translate(106.62 652.71) rotate(-29.48)"/><rect class="cls-3" x="1318.62" y="500.04" width="15" height="2" transform="translate(-78.06 695.76) rotate(-28.59)"/><rect class="cls-3" x="1371.29" y="471.3" width="15" height="2" transform="translate(-57.78 718.07) rotate(-28.62)"/><path class="cls-3" d="M1503.39,403.15l1,1.76,6.18-3.38a28.83,28.83,0,0,0,6.59-4.9l-1.42-1.42a26.77,26.77,0,0,1-6.13,4.57Z"/><path class="cls-3" d="M1265.06,527.86l.18,2a59.05,59.05,0,0,0,14.85-3.32l-.68-1.87A57.36,57.36,0,0,1,1265.06,527.86Z"/><rect class="cls-3" x="1397.62" y="456.92" width="15" height="2" transform="translate(-47.79 728.31) rotate(-28.59)"/><rect class="cls-3" x="1292.28" y="514.41" width="15" height="2" transform="translate(-88.08 685.5) rotate(-28.62)"/><path class="cls-3" d="M1522.65,382.76l1.94.46a29.25,29.25,0,0,0,.79-6.72,28.52,28.52,0,0,0-1.32-8.62l-1.9.59a26.86,26.86,0,0,1,1.22,8A27.46,27.46,0,0,1,1522.65,382.76Z"/><path class="cls-3" d="M1230.06,170.86l-2-.17c0,.63-.08,1.26-.08,1.89a21.9,21.9,0,0,0,4.16,12.94l1.62-1.18a19.88,19.88,0,0,1-3.78-11.76C1230,172,1230,171.43,1230.06,170.86Z"/><rect class="cls-3" x="1423.95" y="442.55" width="15" height="2" transform="translate(-37.57 739.78) rotate(-28.62)"/><rect class="cls-3" x="1476.62" y="413.81" width="15" height="2" transform="translate(-17.52 760.85) rotate(-28.59)"/><rect class="cls-3" x="1450.29" y="428.18" width="15" height="2" transform="translate(-27.47 750.64) rotate(-28.62)"/><rect class="cls-3" x="1555.58" y="61.09" width="2" height="15" transform="translate(744.67 1398.42) rotate(-61.12)"/><rect class="cls-3" x="1765.72" y="177.02" width="2" height="15" transform="translate(751.79 1642.35) rotate(-61.12)"/><rect class="cls-3" x="1739.46" y="162.53" width="2" height="15" transform="translate(750.95 1611.89) rotate(-61.12)"/><rect class="cls-3" x="1660.65" y="119.05" width="2" height="15" transform="translate(748.19 1520.36) rotate(-61.12)"/><rect class="cls-3" x="1686.92" y="133.55" width="2" height="15" transform="translate(749.08 1550.85) rotate(-61.12)"/><rect class="cls-3" x="1818.26" y="206" width="2" height="15" transform="translate(753.58 1703.34) rotate(-61.12)"/><rect class="cls-3" x="1312.34" y="107.98" width="15" height="2" transform="translate(117.26 663.65) rotate(-29.48)"/><rect class="cls-3" x="1791.99" y="191.51" width="2" height="15" transform="translate(752.64 1672.81) rotate(-61.12)"/><polygon class="cls-3" points="1864.58 238.91 1877.33 245.92 1877.85 243.92 1865.55 237.15 1864.58 238.91"/><rect class="cls-3" x="1713.19" y="148.04" width="2" height="15" transform="translate(749.97 1581.34) rotate(-61.12)"/><path class="cls-3" d="M1476.38,23.5a27.41,27.41,0,0,0-6.12.69l.45,1.95a25.09,25.09,0,0,1,5.67-.64l7.48,4.11,1-1.75-7.91-4.36Z"/><rect class="cls-3" x="1442.94" y="34.2" width="15" height="2" transform="translate(170.48 718.37) rotate(-29.48)"/><rect class="cls-3" x="1390.7" y="63.71" width="15" height="2" transform="translate(149.19 696.49) rotate(-29.48)"/><rect class="cls-3" x="1416.82" y="48.96" width="15" height="2" transform="translate(159.84 707.43) rotate(-29.48)"/><rect class="cls-3" x="1364.58" y="78.47" width="15" height="2" transform="translate(138.55 685.54) rotate(-29.48)"/><rect class="cls-3" x="1338.46" y="93.22" width="15" height="2" transform="translate(127.91 674.6) rotate(-29.48)"/><path class="cls-3" d="M1235.48,524.82a59.25,59.25,0,0,0,14.56,4.45l.33-2a57.16,57.16,0,0,1-14.06-4.29Z"/><rect class="cls-3" x="1503.04" y="32.11" width="2" height="15" transform="translate(742.84 1337.41) rotate(-61.12)"/><rect class="cls-3" x="1608.12" y="90.07" width="2" height="15" transform="translate(746.45 1459.4) rotate(-61.12)"/><rect class="cls-3" x="1581.85" y="75.58" width="2" height="15" transform="translate(745.51 1428.88) rotate(-61.12)"/><rect class="cls-3" x="1634.38" y="104.56" width="2" height="15" transform="translate(747.3 1489.87) rotate(-61.12)"/><rect class="cls-3" x="1529.31" y="46.6" width="2" height="15" transform="translate(743.73 1367.9) rotate(-61.12)"/><rect class="cls-3" x="1844.53" y="220.49" width="2" height="15" transform="translate(754.47 1733.83) rotate(-61.12)"/><path class="cls-3" d="M501.76,345l-.46.29.75,1.21v.5A35.17,35.17,0,0,1,516,349.86l.79-1.83a37,37,0,0,0-14.73-3Z"/><rect class="cls-3" x="534.97" y="352.5" width="2" height="15" transform="translate(-44.3 643.12) rotate(-59.9)"/><rect class="cls-3" x="475.24" y="357.05" width="15" height="2" transform="matrix(0.85, -0.53, 0.53, 0.85, -116.39, 310.28)"/><rect class="cls-3" x="424.36" y="388.85" width="15" height="2" transform="matrix(0.85, -0.53, 0.53, 0.85, -140.98, 288.14)"/><rect class="cls-3" x="449.8" y="372.95" width="15" height="2" transform="matrix(0.85, -0.53, 0.53, 0.85, -128.68, 299.21)"/><rect class="cls-3" x="1215.54" y="504.98" width="2" height="15" transform="translate(139.98 1276.44) rotate(-58.2)"/><rect class="cls-3" x="398.92" y="404.75" width="15" height="2" transform="matrix(0.85, -0.53, 0.53, 0.85, -153.27, 277.08)"/><rect class="cls-3" x="560.92" y="367.55" width="2" height="15" transform="translate(-44.37 673.08) rotate(-59.9)"/><rect class="cls-3" x="612.83" y="397.64" width="2" height="15" transform="translate(-44.54 732.98) rotate(-59.9)"/><rect class="cls-3" x="586.88" y="382.59" width="2" height="15" transform="translate(-44.46 703.03) rotate(-59.9)"/><rect class="cls-3" x="220.83" y="516.02" width="15" height="2" transform="matrix(0.85, -0.53, 0.53, 0.85, -239.32, 199.6)"/><rect class="cls-3" x="373.48" y="420.64" width="15" height="2" transform="matrix(0.85, -0.53, 0.53, 0.85, -165.56, 266.01)"/><rect class="cls-3" x="664.74" y="427.73" width="2" height="15" transform="translate(-44.67 792.94) rotate(-59.9)"/><polygon class="cls-3" points="198.1 534.73 200.12 535.83 210.53 529.32 208.72 528.1 198.1 534.73"/><rect class="cls-3" x="246.27" y="500.13" width="15" height="2" transform="translate(-227.08 210.77) rotate(-32.02)"/><rect class="cls-3" x="271.71" y="484.23" width="15" height="2" transform="translate(-214.66 221.61) rotate(-31.99)"/><rect class="cls-3" x="348.03" y="436.54" width="15" height="2" transform="translate(-177.81 254.8) rotate(-31.99)"/><rect class="cls-3" x="322.59" y="452.44" width="15" height="2" transform="translate(-190.09 243.74) rotate(-31.99)"/><rect class="cls-3" x="297.15" y="468.33" width="15" height="2" transform="matrix(0.85, -0.53, 0.53, 0.85, -202.44, 232.8)"/><rect class="cls-3" x="638.79" y="412.69" width="2" height="15" transform="translate(-44.62 762.93) rotate(-59.9)"/><rect class="cls-3" x="1037.05" y="394.33" width="2" height="15" transform="translate(149.6 1072.4) rotate(-58.21)"/><rect class="cls-3" x="950.02" y="407.56" width="15" height="2" transform="translate(-76.7 527.52) rotate(-29.67)"/><path class="cls-3" d="M989,389.49l-12.39,7.06,1,1.74L990,391.23l.62-.35-1-1.76Z"/><rect class="cls-3" x="1088.05" y="425.94" width="2" height="15" transform="translate(146.8 1130.63) rotate(-58.2)"/><path class="cls-3" d="M1004.51,387.38a29.42,29.42,0,0,1,13.92,3.52l1-1.76a31.39,31.39,0,0,0-14.87-3.76Z"/><rect class="cls-3" x="1062.55" y="410.14" width="2" height="15" transform="translate(148.21 1101.54) rotate(-58.2)"/><rect class="cls-3" x="1113.54" y="441.75" width="2" height="15" transform="translate(145.45 1159.8) rotate(-58.2)"/><rect class="cls-3" x="1164.54" y="473.37" width="2" height="15" transform="translate(142.69 1218.08) rotate(-58.2)"/><rect class="cls-3" x="1190.04" y="489.17" width="2" height="15" transform="translate(141.35 1247.29) rotate(-58.2)"/><rect class="cls-3" x="1139.04" y="457.56" width="2" height="15" transform="translate(144.1 1188.99) rotate(-58.2)"/><path class="cls-3" d="M762.85,492.22a60.89,60.89,0,0,0,14.59,4.31l.32-2a59.45,59.45,0,0,1-14.11-4.17Z"/><rect class="cls-3" x="690.69" y="442.78" width="2" height="15" transform="translate(-44.75 822.88) rotate(-59.9)"/><rect class="cls-3" x="742.6" y="472.87" width="2" height="15" transform="translate(-44.91 882.79) rotate(-59.9)"/><path class="cls-3" d="M792.46,495.13l.17,2A61.47,61.47,0,0,0,807.51,494l-.65-1.89A59.52,59.52,0,0,1,792.46,495.13Z"/><rect class="cls-3" x="716.65" y="457.82" width="2" height="15" transform="translate(-44.83 852.84) rotate(-59.9)"/><rect class="cls-3" x="923.95" y="422.4" width="15" height="2" transform="translate(-87.47 516.56) rotate(-29.67)"/><rect class="cls-3" x="819.69" y="481.8" width="15" height="2" transform="translate(-130.54 472.74) rotate(-29.67)"/><rect class="cls-3" x="871.82" y="452.1" width="15" height="2" transform="translate(-109 494.65) rotate(-29.67)"/><rect class="cls-3" x="897.89" y="437.25" width="15" height="2" transform="translate(-98.23 505.6) rotate(-29.67)"/><rect class="cls-3" x="845.75" y="466.95" width="15" height="2" transform="translate(-119.77 483.69) rotate(-29.67)"/><polygon class="cls-3" points="12.12 652.83 11.07 651.13 0.2 657.83 0 657.95 0.2 658.26 1.05 659.65 12.12 652.83"/><rect class="cls-3" x="21.69" y="640.74" width="13" height="2" transform="translate(-332.55 110.24) rotate(-31.65)"/><rect class="cls-3" x="154.49" y="558.88" width="13" height="2" transform="translate(-269.84 167.74) rotate(-31.65)"/><rect class="cls-3" x="88.09" y="599.81" width="13" height="2" transform="translate(-301.19 138.99) rotate(-31.65)"/><rect class="cls-3" x="176.62" y="545.24" width="13" height="2" transform="translate(-259.39 177.33) rotate(-31.65)"/><rect class="cls-3" x="43.82" y="627.1" width="13" height="2" transform="translate(-322.1 119.82) rotate(-31.65)"/><rect class="cls-3" x="132.35" y="572.53" width="13" height="2" transform="translate(-280.29 158.16) rotate(-31.65)"/><rect class="cls-3" x="110.22" y="586.17" width="13" height="2" transform="translate(-290.74 148.57) rotate(-31.65)"/><rect class="cls-3" x="65.96" y="613.46" width="13" height="2" transform="translate(-311.64 129.41) rotate(-31.65)"/><rect class="cls-3" x="1917.22" y="259.3" width="2" height="13" transform="translate(797.29 1844.96) rotate(-62.52)"/><rect class="cls-3" x="2009.49" y="307.28" width="2" height="13" transform="translate(804.46 1952.7) rotate(-62.52)"/><polygon class="cls-3" points="2027.33 323.67 2028.63 324.34 2029.19 323.28 2029.56 322.57 2029.19 322.38 2028.25 321.89 2027.33 323.67"/><rect class="cls-3" x="1894.15" y="247.31" width="2" height="13" transform="translate(795.5 1818.03) rotate(-62.52)"/><rect class="cls-3" x="1963.36" y="283.29" width="2" height="13" transform="translate(801.01 1898.92) rotate(-62.53)"/><rect class="cls-3" x="1986.42" y="295.29" width="2" height="13" transform="translate(802.79 1925.85) rotate(-62.53)"/><rect class="cls-3" x="1940.29" y="271.3" width="2" height="13" transform="translate(799.07 1871.88) rotate(-62.52)"/></g></g></svg>